<svg width="53" height="40" viewBox="0 0 53 40" fill="none" xmlns="http://www.w3.org/2000/svg">
<path d="M25.7973 10.377L8.83403 23.9366V38.5713C8.83403 38.9502 8.98913 39.3136 9.2652 39.5815C9.54128 39.8495 9.91571 40 10.3061 40L20.6164 39.9741C21.0056 39.9722 21.3781 39.8209 21.6526 39.5531C21.9271 39.2854 22.0812 38.9231 22.0812 38.5454V29.9989C22.0812 29.62 22.2363 29.2566 22.5123 28.9886C22.7884 28.7207 23.1629 28.5702 23.5533 28.5702H29.4417C29.8321 28.5702 30.2066 28.7207 30.4827 28.9886C30.7587 29.2566 30.9138 29.62 30.9138 29.9989V38.5391C30.9132 38.7271 30.9508 38.9134 31.0246 39.0872C31.0983 39.2611 31.2066 39.4191 31.3434 39.5523C31.4801 39.6854 31.6426 39.7911 31.8215 39.8631C32.0004 39.9352 32.1922 39.9723 32.3859 39.9723L42.6925 40C43.083 40 43.4574 39.8495 43.7335 39.5815C44.0095 39.3136 44.1646 38.9502 44.1646 38.5713V23.9268L27.205 10.377C27.0056 10.2211 26.7573 10.136 26.5012 10.136C26.2451 10.136 25.9967 10.2211 25.7973 10.377V10.377ZM52.5925 19.5933L44.9007 13.4399V1.07155C44.9007 0.787356 44.7844 0.514804 44.5773 0.313849C44.3703 0.112895 44.0894 0 43.7966 0H38.6442C38.3514 0 38.0706 0.112895 37.8635 0.313849C37.6565 0.514804 37.5402 0.787356 37.5402 1.07155V7.55531L29.3028 0.977788C28.5123 0.346449 27.5203 0.00126206 26.4966 0.00126206C25.4728 0.00126206 24.4809 0.346449 23.6904 0.977788L0.400688 19.5933C0.288889 19.6829 0.196392 19.7931 0.128484 19.9175C0.0605753 20.0419 0.0185861 20.1781 0.00491515 20.3182C-0.00875578 20.4583 0.00615954 20.5997 0.0488089 20.7343C0.0914582 20.8688 0.161006 20.9939 0.253478 21.1024L2.59965 23.8705C2.69187 23.9794 2.8053 24.0695 2.93345 24.1357C3.0616 24.2019 3.20195 24.243 3.34646 24.2565C3.49098 24.27 3.63682 24.2557 3.77565 24.2145C3.91447 24.1732 4.04355 24.1058 4.15549 24.0161L25.7973 6.71593C25.9967 6.55995 26.2451 6.47489 26.5012 6.47489C26.7573 6.47489 27.0056 6.55995 27.205 6.71593L48.8478 24.0161C48.9595 24.1058 49.0884 24.1733 49.227 24.2147C49.3657 24.2561 49.5114 24.2706 49.6558 24.2573C49.8002 24.244 49.9404 24.2033 50.0686 24.1374C50.1968 24.0715 50.3103 23.9817 50.4027 23.8732L52.7489 21.105C52.8413 20.996 52.9105 20.8702 52.9527 20.7351C52.9948 20.6 53.009 20.4581 52.9945 20.3176C52.9799 20.1771 52.9369 20.0408 52.868 19.9165C52.799 19.7922 52.7053 19.6823 52.5925 19.5933V19.5933Z" fill="#FC6075"/>
</svg>
