<svg width="37" height="28" viewBox="0 0 37 28" fill="none" xmlns="http://www.w3.org/2000/svg">
<path d="M34.8307 0.00339412C31.3105 0.197768 24.3138 0.905265 19.9945 3.47775C19.6964 3.65525 19.5275 3.97087 19.5275 4.30087V27.0426C19.5275 27.7645 20.3388 28.2208 21.0229 27.8858C25.4668 25.7095 31.8938 25.1158 35.0716 24.9533C36.1566 24.8976 37 24.0514 37 23.037V1.92213C37.0006 0.815265 36.014 -0.0616056 34.8307 0.00339412ZM17.0055 3.47775C12.6869 0.905265 5.69013 0.198393 2.16993 0.00339412C0.986684 -0.0616056 0 0.815265 0 1.92213V23.0377C0 24.0527 0.843435 24.8989 1.9284 24.9539C5.1075 25.1164 11.5376 25.7108 15.9816 27.8883C16.6638 28.2226 17.4725 27.767 17.4725 27.047V4.28962C17.4725 3.959 17.3042 3.65588 17.0055 3.47775Z" fill="#FC6075"/>
</svg>
