<svg width="27" height="31" viewBox="0 0 27 31" fill="none" xmlns="http://www.w3.org/2000/svg">
<path d="M13.5 31C15.6287 31 17.3553 29.2653 17.3553 27.125H9.64468C9.64468 29.2653 11.3713 31 13.5 31ZM26.4811 21.9355C25.3167 20.6786 23.138 18.7877 23.138 12.5938C23.138 7.88926 19.8546 4.12324 15.4274 3.1993V1.9375C15.4274 0.867637 14.5643 0 13.5 0C12.4357 0 11.5726 0.867637 11.5726 1.9375V3.1993C7.14538 4.12324 3.86199 7.88926 3.86199 12.5938C3.86199 18.7877 1.68332 20.6786 0.518946 21.9355C0.15734 22.3261 -0.00297172 22.7929 4.16684e-05 23.25C0.00667111 24.243 0.782316 25.1875 1.93463 25.1875H25.0654C26.2177 25.1875 26.9939 24.243 27 23.25C27.003 22.7929 26.8427 22.3254 26.4811 21.9355Z" fill="#FC6075"/>
</svg>
