<svg width="29" height="28" viewBox="0 0 29 28" fill="none" xmlns="http://www.w3.org/2000/svg">
<path d="M14.5 15.75C19.0029 15.75 22.6562 12.2227 22.6562 7.875C22.6562 3.52734 19.0029 0 14.5 0C9.99707 0 6.34375 3.52734 6.34375 7.875C6.34375 12.2227 9.99707 15.75 14.5 15.75ZM21.75 17.5H18.6291C17.3717 18.0578 15.9727 18.375 14.5 18.375C13.0273 18.375 11.634 18.0578 10.3709 17.5H7.25C3.24551 17.5 0 20.6336 0 24.5V25.375C0 26.8242 1.21777 28 2.71875 28H26.2812C27.7822 28 29 26.8242 29 25.375V24.5C29 20.6336 25.7545 17.5 21.75 17.5Z" fill="#FC6075"/>
</svg>
