<svg width="41" height="33" viewBox="0 0 41 33" fill="none" xmlns="http://www.w3.org/2000/svg">
<path d="M39.5357 28.2857H1.46429C1.07593 28.2857 0.703486 28.4099 0.428879 28.6309C0.154273 28.8519 0 29.1517 0 29.4643L0 31.8214C0 32.134 0.154273 32.4338 0.428879 32.6548C0.703486 32.8758 1.07593 33 1.46429 33H39.5357C39.9241 33 40.2965 32.8758 40.5711 32.6548C40.8457 32.4338 41 32.134 41 31.8214V29.4643C41 29.1517 40.8457 28.8519 40.5711 28.6309C40.2965 28.4099 39.9241 28.2857 39.5357 28.2857ZM39.5357 18.8571H1.46429C1.07593 18.8571 0.703486 18.9813 0.428879 19.2023C0.154273 19.4234 0 19.7231 0 20.0357L0 22.3929C0 22.7054 0.154273 23.0052 0.428879 23.2262C0.703486 23.4473 1.07593 23.5714 1.46429 23.5714H39.5357C39.9241 23.5714 40.2965 23.4473 40.5711 23.2262C40.8457 23.0052 41 22.7054 41 22.3929V20.0357C41 19.7231 40.8457 19.4234 40.5711 19.2023C40.2965 18.9813 39.9241 18.8571 39.5357 18.8571ZM39.5357 9.42857H1.46429C1.07593 9.42857 0.703486 9.55274 0.428879 9.77377C0.154273 9.99479 0 10.2946 0 10.6071L0 12.9643C0 13.2769 0.154273 13.5766 0.428879 13.7977C0.703486 14.0187 1.07593 14.1429 1.46429 14.1429H39.5357C39.9241 14.1429 40.2965 14.0187 40.5711 13.7977C40.8457 13.5766 41 13.2769 41 12.9643V10.6071C41 10.2946 40.8457 9.99479 40.5711 9.77377C40.2965 9.55274 39.9241 9.42857 39.5357 9.42857ZM39.5357 0H1.46429C1.07593 0 0.703486 0.124171 0.428879 0.345196C0.154273 0.566221 0 0.865995 0 1.17857L0 3.53571C0 3.84829 0.154273 4.14807 0.428879 4.36909C0.703486 4.59012 1.07593 4.71429 1.46429 4.71429H39.5357C39.9241 4.71429 40.2965 4.59012 40.5711 4.36909C40.8457 4.14807 41 3.84829 41 3.53571V1.17857C41 0.865995 40.8457 0.566221 40.5711 0.345196C40.2965 0.124171 39.9241 0 39.5357 0Z" fill="white"/>
</svg>
