<svg width="31" height="31" viewBox="0 0 31 31" fill="none" xmlns="http://www.w3.org/2000/svg">
<path d="M30.5784 26.8015L24.5414 20.7656C24.269 20.4931 23.8996 20.3418 23.5121 20.3418H22.5251C24.1963 18.2047 25.1893 15.5166 25.1893 12.5925C25.1893 5.63636 19.552 0 12.5947 0C5.63733 0 0 5.63636 0 12.5925C0 19.5487 5.63733 25.185 12.5947 25.185C15.5193 25.185 18.2078 24.1922 20.3452 22.5212V23.5081C20.3452 23.8955 20.4966 24.2648 20.7691 24.5373L26.8061 30.5732C27.3752 31.1423 28.2956 31.1423 28.8588 30.5732L30.5724 28.8599C31.1415 28.2908 31.1415 27.3706 30.5784 26.8015ZM12.5947 20.3418C8.31369 20.3418 4.8441 16.8788 4.8441 12.5925C4.8441 8.31227 8.30764 4.84328 12.5947 4.84328C16.8756 4.84328 20.3452 8.30622 20.3452 12.5925C20.3452 16.8728 16.8817 20.3418 12.5947 20.3418Z" fill="white"/>
</svg>
