<svg width="187" height="140" viewBox="0 0 187 140" fill="none" xmlns="http://www.w3.org/2000/svg">
<path d="M169.469 23.3333H99.3438L75.9688 0H17.5312C7.84889 0 0 7.8349 0 17.5V122.5C0 132.165 7.84889 140 17.5312 140H169.469C179.151 140 187 132.165 187 122.5V40.8333C187 31.1682 179.151 23.3333 169.469 23.3333ZM134.406 84.5833C134.406 87.8063 131.791 90.4167 128.562 90.4167H102.266V116.667C102.266 119.89 99.6505 122.5 96.4219 122.5H90.5781C87.3495 122.5 84.7344 119.89 84.7344 116.667V90.4167H58.4375C55.2088 90.4167 52.5938 87.8063 52.5938 84.5833V78.75C52.5938 75.5271 55.2088 72.9167 58.4375 72.9167H84.7344V46.6667C84.7344 43.4438 87.3495 40.8333 90.5781 40.8333H96.4219C99.6505 40.8333 102.266 43.4438 102.266 46.6667V72.9167H128.562C131.791 72.9167 134.406 75.5271 134.406 78.75V84.5833Z" fill="black"/>
</svg>
